<svg xmlns="http://www.w3.org/2000/svg" width="24" height="24" viewBox="0 0 36 36"><path d="M8.41,14V12.22a1,1,0,0,1,1-1H26.61a1,1,0,0,1,1,1V14H29V12.22a2.38,2.38,0,0,0-2.38-2.37H9.39A2.38,2.38,0,0,0,7,12.22V14Z"></path><rect x="12.72" y="23.04" width="11.07" height="1.4"></rect><path d="M21.42,27.21H14.58a.7.7,0,0,1,0-1.4h6.84a.7.7,0,1,1,0,1.4Z"></path><rect x="16.04" y="24.06" width="1.4" height="2.32"></rect><rect x="18.56" y="24.06" width="1.4" height="2.32"></rect><path d="M10.31,27.21H5.12a1.56,1.56,0,0,1-1.56-1.56V16.29a1.56,1.56,0,0,1,1.56-1.55h5.19a1.55,1.55,0,0,1,1.55,1.55v9.36A1.55,1.55,0,0,1,10.31,27.21ZM5.12,16.14a.16.16,0,0,0-.16.15v9.36a.16.16,0,0,0,.16.16h5.19a.16.16,0,0,0,.15-.16V16.29a.15.15,0,0,0-.15-.15Z"></path><rect x="4.43" y="16.86" width="6.9" height="1"></rect><rect x="4.26" y="23.56" width="6.9" height="1"></rect><circle cx="7.71" cy="25.23" r="0.37"></circle><polygon points="31.84 27.21 24.74 27.21 24.74 22.17 26.14 22.17 26.14 25.81 30.44 25.81 30.44 22.17 31.84 22.17 31.84 27.21"></polygon><path d="M27.41,26.51h-2v-2A2,2,0,0,1,27.41,26.51Z"></path><path d="M29.17,26.51h2v-2A2,2,0,0,0,29.17,26.51Z"></path><path d="M27,22.17a1.29,1.29,0,0,0,2.57,0Z"></path><rect x="23.82" y="20.81" width="8.92" height="1.4"></rect><circle cx="26.44" cy="15.75" r="0.72"></circle><circle cx="30.13" cy="15.75" r="0.72"></circle><circle cx="28.29" cy="15.75" r="0.72"></circle><circle cx="26.44" cy="17.55" r="0.72"></circle><circle cx="30.13" cy="17.55" r="0.72"></circle><circle cx="28.29" cy="17.55" r="0.72"></circle><circle cx="26.44" cy="19.34" r="0.72"></circle><circle cx="30.13" cy="19.34" r="0.72"></circle><circle cx="28.29" cy="19.34" r="0.72"></circle><path d="M17,16.86a1,1,0,0,1,0,1.1,1.14,1.14,0,0,1-.57.35,3.59,3.59,0,0,1-1,.12l-.51,0-.51-.05V15a4.27,4.27,0,0,1,.57-.09c.21,0,.41,0,.6,0a2.06,2.06,0,0,1,1.16.25.8.8,0,0,1,.37.73.75.75,0,0,1-.15.47.66.66,0,0,1-.39.28A.84.84,0,0,1,17,16.86Zm-1.75-1.3v.72h.43a.73.73,0,0,0,.42-.09.32.32,0,0,0,.13-.29.38.38,0,0,0-.06-.22.32.32,0,0,0-.18-.12,1,1,0,0,0-.33,0A1.84,1.84,0,0,0,15.2,15.56Zm.8,2.18a.37.37,0,0,0,.22-.14.36.36,0,0,0,.07-.24.36.36,0,0,0-.14-.31.75.75,0,0,0-.45-.1h-.5v.81l.39,0A1.53,1.53,0,0,0,16,17.74Z"></path><path d="M17.5,18.38V14.92h.9v3.46Z"></path><path d="M19,15a6.14,6.14,0,0,1,1.11-.11,2,2,0,0,1,1.21.31,1.15,1.15,0,0,1,.4,1,1.15,1.15,0,0,1-.39,1,1.72,1.72,0,0,1-1.14.33h-.29v1H19Zm1.69,1.64a.57.57,0,0,0,.16-.46.59.59,0,0,0-.16-.47.68.68,0,0,0-.49-.15l-.3,0v1.18a1.62,1.62,0,0,0,.3,0A.72.72,0,0,0,20.65,16.62Z"></path></svg>