<svg xmlns="http://www.w3.org/2000/svg" width="24" height="24" viewBox="0 0 36 36"><path d="M9.68,30.11H8.28V25.4h-.2a2.39,2.39,0,0,1-2.5-2.5V16.59a2.4,2.4,0,0,1,2.5-2.51h1.8v1.4H8.08A1,1,0,0,0,7,16.59V22.9A1,1,0,0,0,8.08,24h1.6Z"></path><path d="M9,12.78a3.13,3.13,0,0,1-3.4-3.41A3.12,3.12,0,0,1,9,6a3.13,3.13,0,0,1,3.41,3.4A3.14,3.14,0,0,1,9,12.78ZM9,7.37a1.75,1.75,0,0,0-2,2,1.76,1.76,0,0,0,2,2,1.77,1.77,0,0,0,2-2A1.76,1.76,0,0,0,9,7.37Z"></path><path d="M16.9,30.11H15.5V24.5h-.21a2.39,2.39,0,0,1-2.5-2.5V13.88a2.39,2.39,0,0,1,2.5-2.5H18v1.4H15.29a1,1,0,0,0-1.1,1.1V22a1,1,0,0,0,1.1,1.1H16.9Z"></path><path d="M20.5,30.11H19.1v-7h1.61a1,1,0,0,0,1.1-1.1V13.88a1,1,0,0,0-1.1-1.1H18v-1.4h2.71a2.39,2.39,0,0,1,2.5,2.5V22a2.39,2.39,0,0,1-2.5,2.5H20.5Z"></path><path d="M18,10.07a3.13,3.13,0,0,1-3.41-3.4A3.13,3.13,0,0,1,18,3.26a3.13,3.13,0,0,1,3.41,3.41A3.13,3.13,0,0,1,18,10.07Zm0-5.41a1.77,1.77,0,0,0-2,2,1.77,1.77,0,0,0,2,2,1.77,1.77,0,0,0,2-2A1.77,1.77,0,0,0,18,4.66Z"></path><path d="M27.72,30.11h-1.4V24h1.6A1,1,0,0,0,29,22.9V16.59a1,1,0,0,0-1.1-1.11h-1.8v-1.4h1.8a2.4,2.4,0,0,1,2.5,2.51V22.9a2.39,2.39,0,0,1-2.5,2.5h-.2Z"></path><path d="M27,12.78a3.14,3.14,0,0,1-3.41-3.41A3.13,3.13,0,0,1,27,6a3.12,3.12,0,0,1,3.4,3.4A3.13,3.13,0,0,1,27,12.78Zm0-5.41a1.76,1.76,0,0,0-2,2,1.77,1.77,0,0,0,2,2,1.76,1.76,0,0,0,2-2A1.75,1.75,0,0,0,27,7.37Z"></path></svg>