<svg xmlns="http://www.w3.org/2000/svg" width="24" height="24" id="Capa_3" viewBox="0 0 36 36"><defs><style>.cls-1{fill:#3c3c3b;}</style></defs><path class="cls-1" d="m5.01,15.83c-.18,0-.36-.07-.5-.21-.27-.27-.27-.72,0-.99l6.64-6.64c.27-.27.72-.27.99,0,.27.27.27.72,0,.99l-6.64,6.64c-.14.14-.32.21-.5.21Z"></path><path class="cls-1" d="m2.2,13.86c-.18,0-.36-.07-.5-.21-.27-.27-.27-.72,0-.99l7.06-7.06c.27-.27.71-.27.99,0l3.49,3.46c.37.37.86.57,1.38.57h4.41c.39,0,.7.31.7.7s-.31.7-.7.7h-4.41c-.89,0-1.73-.35-2.37-.97l-2.99-2.97-6.56,6.56c-.14.14-.32.2-.5.21Z"></path><g><path class="cls-1" d="m22.02,26.72l-.88-.88c-.27-.27-.72-.27-.99,0s-.27.72,0,.99l.88.88c.16.16.25.38.25.61s-.09.45-.25.61c-.34.34-.89.34-1.22,0l-1.37-1.37-.65,1.33,1.03,1.03c.44.44,1.02.66,1.6.66s1.16-.22,1.6-.66c.43-.43.66-1,.66-1.6s-.24-1.17-.66-1.6Z"></path><path class="cls-1" d="m23.09,28.83c-.6,0-1.17-.24-1.6-.66l-3.08-3.08c-.27-.27-.27-.72,0-.99s.72-.27.99,0l3.08,3.08c.33.33.9.33,1.22,0,.34-.34.34-.89,0-1.22l-1.8-1.8c-.27-.27-.27-.72,0-.99.27-.27.72-.27.99,0l1.8,1.8c.88.88.88,2.32,0,3.2-.43.43-1,.66-1.6.66Z"></path><path class="cls-1" d="m25.76,27.07c-.58,0-1.16-.22-1.6-.66l-3.53-3.54c-.27-.27-.27-.72,0-.99.27-.27.72-.27.99,0l3.53,3.53c.34.34.89.34,1.22,0,.16-.16.25-.38.25-.61s-.09-.45-.25-.61l-3.53-3.53c-.27-.27-.27-.72,0-.99.27-.27.72-.27.99,0l3.53,3.53c.43.43.66,1,.66,1.6s-.24,1.17-.66,1.6c-.44.44-1.02.66-1.6.66Z"></path></g><g><path class="cls-1" d="m15.57,30.6c-.58,0-1.16-.22-1.6-.66-.43-.43-.66-1-.66-1.6s.24-1.17.66-1.6l.88-.88c.88-.88,2.32-.88,3.2,0,.43.43.66,1,.66,1.6s-.24,1.17-.66,1.6l-.88.88h0c-.44.44-1.02.66-1.6.66Zm1.11-1.16h0,0Zm-.22-2.85c-.22,0-.44.08-.61.25l-.88.88c-.16.16-.25.38-.25.61s.09.45.25.61c.34.34.89.34,1.22,0l.88-.88c.16-.16.25-.38.25-.61s-.09-.45-.25-.61c-.17-.17-.39-.25-.61-.25Z"></path><path class="cls-1" d="m8.99,23.9c-.58,0-1.16-.22-1.6-.66-.88-.88-.88-2.32,0-3.2l1.8-1.8c.86-.86,2.35-.86,3.2,0,.43.43.66,1,.66,1.6s-.24,1.17-.66,1.6l-1.8,1.8h0c-.44.44-1.02.66-1.6.66Zm1.11-1.16h0,0Zm.69-3.77c-.23,0-.45.09-.61.25l-1.8,1.8c-.34.34-.34.89,0,1.22.34.34.89.34,1.22,0l1.8-1.8c.16-.16.25-.38.25-.61s-.09-.45-.25-.61c-.16-.16-.38-.25-.61-.25Z"></path><path class="cls-1" d="m12.9,28.84c-.6,0-1.17-.24-1.6-.66-.43-.43-.66-1-.66-1.6s.24-1.17.66-1.6l1.8-1.8c.86-.86,2.35-.86,3.2,0,.88.88.88,2.32,0,3.2l-1.8,1.8h0c-.43.43-1,.66-1.6.66Zm1.11-1.16h0,0Zm.69-3.77c-.23,0-.45.09-.61.25l-1.8,1.8c-.16.16-.25.38-.25.61s.09.45.25.61c.33.33.9.33,1.22,0l1.8-1.8c.34-.34.34-.89,0-1.22-.16-.16-.38-.25-.61-.25Z"></path><path class="cls-1" d="m10.23,27.09c-.58,0-1.16-.22-1.6-.66-.43-.43-.66-1-.66-1.6s.24-1.17.66-1.6l2.71-2.71c.86-.86,2.35-.86,3.2,0,.43.43.66,1,.66,1.6s-.24,1.17-.66,1.6l-2.71,2.71h0c-.44.44-1.02.66-1.6.66Zm1.11-1.16h0,0Zm1.6-4.68c-.23,0-.45.09-.61.25l-2.71,2.71c-.16.16-.25.38-.25.61s.09.45.25.61c.34.34.89.34,1.22,0l2.71-2.71c.16-.16.25-.38.25-.61s-.09-.45-.25-.61c-.16-.16-.38-.25-.61-.25Z"></path></g><path class="cls-1" d="m31.26,16.13c-.18,0-.36-.07-.5-.21l-6.94-6.94c-.27-.27-.27-.72,0-.99s.72-.27.99,0l6.94,6.94c.27.27.27.72,0,.99-.14.14-.32.21-.5.21Z"></path><path class="cls-1" d="m27.02,23.87c-.6,0-1.19-.23-1.65-.68l-1.25-1.25c-.27-.27-.27-.72,0-.99.27-.27.72-.27.99,0l1.25,1.25c.34.34.89.36,1.23.05.17-.16.27-.38.27-.62,0-.24-.09-.46-.25-.63l-5.88-5.88c-.33-.33-.74-.51-1.24-.51h-2.59s-1.1,1.11-1.1,1.11c-1.14,1.14-2.89,1.44-4.35.75-.44-.21-.75-.61-.83-1.09-.08-.48.07-.97.42-1.31l3.52-3.52c.6-.6,1.39-.93,2.24-.93h3.57c.52,0,1.01-.2,1.38-.57l3.49-3.46c.27-.27.72-.27.99,0l7.06,7.06c.27.27.27.72,0,.99l-6.03,6.03.33.33c.44.44.67,1.02.66,1.64-.01.62-.27,1.19-.72,1.62-.43.4-.98.6-1.53.6Zm-6.52-10.65c.83,0,1.64.34,2.23.92l4.56,4.56,5.53-5.53-6.07-6.07-2.99,2.97c-.63.63-1.48.97-2.37.97h-3.57c-.47,0-.92.18-1.25.52l-3.61,3.6.11.07c.92.44,2.03.25,2.76-.48l1.3-1.3c.13-.13.31-.2.49-.21l2.88-.02s0,0,.01,0Z"></path><path class="cls-1" d="m8.73,20.39c-.18,0-.36-.07-.5-.21L1.7,13.65c-.27-.27-.27-.72,0-.99s.72-.27.99,0l6.53,6.53c.27.27.27.72,0,.99-.14.14-.32.21-.5.21Z"></path></svg>