<svg xmlns="http://www.w3.org/2000/svg" width="24" height="24"  viewBox="0 0 36 36"><defs><style>.cls-1{fill:none;stroke:#3c3c3b;stroke-miterlimit:10;stroke-width:1.4px;}</style></defs><g><path class="cls-1" d="M28.92,12.22v-2.19c0-1.63-1.32-2.95-2.95-2.95h-3.57"></path><path class="cls-1" d="M13.6,7.08h-3.57c-1.63,0-2.95,1.32-2.95,2.95v2.19"></path><path class="cls-1" d="M22.4,28.92h3.57c1.63,0,2.95-1.32,2.95-2.95v-2.19"></path><path class="cls-1" d="M7.08,23.78v2.19c0,1.63,1.32,2.95,2.95,2.95h3.57"></path></g><g><path class="cls-1" d="M20.69,13.73v-2.45c0-.64-.43-1.08-1.08-1.08h-3.23c-.64,0-1.08,.43-1.08,1.08v2.45"></path><path class="cls-1" d="M18,8.6c1.04,0,1.61-.57,1.61-1.61s-.57-1.61-1.61-1.61-1.61,.57-1.61,1.61,.57,1.61,1.61,1.61Z"></path></g><g><g><path class="cls-1" d="M31.57,22.61v-2.45c0-.64-.43-1.08-1.08-1.08h-3.23c-.64,0-1.08,.43-1.08,1.08v2.45"></path><path class="cls-1" d="M28.89,17.47c1.04,0,1.61-.57,1.61-1.61s-.57-1.61-1.61-1.61-1.61,.57-1.61,1.61,.57,1.61,1.61,1.61Z"></path></g><g><path class="cls-1" d="M9.77,22.61v-2.45c0-.64-.43-1.08-1.08-1.08h-3.23c-.64,0-1.08,.43-1.08,1.08v2.45"></path><path class="cls-1" d="M7.08,17.47c1.04,0,1.61-.57,1.61-1.61s-.57-1.61-1.61-1.61-1.61,.57-1.61,1.61,.57,1.61,1.61,1.61Z"></path></g></g><g><path class="cls-1" d="M20.71,30.95v-2.45c0-.64-.43-1.08-1.08-1.08h-3.23c-.64,0-1.08,.43-1.08,1.08v2.45"></path><path class="cls-1" d="M18.03,25.81c1.04,0,1.61-.57,1.61-1.61s-.57-1.61-1.61-1.61-1.61,.57-1.61,1.61,.57,1.61,1.61,1.61Z"></path></g></svg>